<svg xmlns="http://www.w3.org/2000/svg" xmlns:xlink="http://www.w3.org/1999/xlink" width="894.716" height="730.655" viewBox="0 0 894.716 730.655">
  <defs>
    <linearGradient id="linear-gradient" x1="0.5" y1="1" x2="0.5" gradientUnits="objectBoundingBox">
      <stop offset="0" stop-color="gray" stop-opacity="0.251"/>
      <stop offset="0.54" stop-color="gray" stop-opacity="0.122"/>
      <stop offset="1" stop-color="gray" stop-opacity="0.102"/>
    </linearGradient>
  </defs>
  <g id="Grupo_2" data-name="Grupo 2" transform="translate(0 31.859)">
    <path id="Caminho_2" data-name="Caminho 2" d="M397.27,660.83l-307.551-1.5L59.16,587.653l108.058-7.844-18.833-78.586,213.726-27.7L157.451,402.375l18.079-4.3,329.089,53.688L486.494,574.409l-25.9,67.4Z" transform="translate(-6.003 -72.257)" fill="#74a7cc"/>
    <path id="Caminho_3" data-name="Caminho 3" d="M187,698.807s18.869-3.019,30.191,10.315c0,0-8.3,6.541-26.165-2.516Z" transform="translate(-98.566 -141.755)" fill="#74a7cc"/>
    <path id="Caminho_4" data-name="Caminho 4" d="M183.925,698.51s-12.04,14.817-6.11,31.314c0,0,9.812-3.927,10.881-23.928Z" transform="translate(-97.468 -141.755)" fill="#74a7cc"/>
    <path id="Caminho_5" data-name="Caminho 5" d="M172.76,670.859s7.548-13.846,37.738,5.535c0,0-4.025,9.309-17.36,8.554S176.282,678.155,172.76,670.859Z" transform="translate(-97.121 -138.463)" fill="#74a7cc"/>
    <path id="Caminho_6" data-name="Caminho 6" d="M168.65,670.288s-15.661-1.8-17.18,34.055c0,0,9.929,2.058,16.982-9.282S172.613,677.36,168.65,670.288Z" transform="translate(-94.961 -138.89)" fill="#74a7cc"/>
    <path id="Caminho_7" data-name="Caminho 7" d="M160.44,636.961s8.806-24.4,40.758-7.045c0,0-7.3,22.392-37.487,15.347Z" transform="translate(-95.871 -134.162)" fill="#74a7cc"/>
    <path id="Caminho_8" data-name="Caminho 8" d="M149.52,596.56s16.6-24.656,46.041-1.8c0,0-10.315,23.146-43.525,10.567Z" transform="translate(-94.763 -130.242)" fill="#74a7cc"/>
    <path id="Caminho_9" data-name="Caminho 9" d="M145.6,558.083s19.372-22.652,48.521,0c0,0-18.366,19.875-48.521,5.787Z" transform="translate(-94.366 -126.485)" fill="#74a7cc"/>
    <path id="Caminho_10" data-name="Caminho 10" d="M142.24,520.46s19.624-23.649,47.551-1.258c0,0-22.14,20.882-47.551,6.793Z" transform="translate(-94.025 -122.584)" fill="#74a7cc"/>
    <path id="Caminho_11" data-name="Caminho 11" d="M144.2,486.452s20.666-30.442,46.8-9.812c0,0-22.14,26.165-46.8,15.6Z" transform="translate(-94.223 -118.515)" fill="#74a7cc"/>
    <path id="Caminho_12" data-name="Caminho 12" d="M149.52,447.668s21.888-30.191,47.3-7.044c0,0-25.914,26.165-47.3,12.579Z" transform="translate(-94.763 -114.702)" fill="#74a7cc"/>
    <path id="Caminho_13" data-name="Caminho 13" d="M157.512,412.432s25.914-28.376,48.521-17.072c0,0-27,30.137-49.653,24.6Z" transform="translate(-95.459 -110.726)" fill="#74a7cc"/>
    <path id="Caminho_14" data-name="Caminho 14" d="M167.481,378.8s29.9-34.755,47.3-23.146c0,0-22.032,26.956-49.419,29.652Z" transform="translate(-96.37 -106.726)" fill="#74a7cc"/>
    <path id="Caminho_15" data-name="Caminho 15" d="M181.873,340.894s26.174-28.376,45.3-21.331c0,0-22.391,29.436-48.808,30.191Z" transform="translate(-97.689 -103.191)" fill="#74a7cc"/>
    <path id="Caminho_16" data-name="Caminho 16" d="M195.3,305.058s28.933-27.172,41.512-22.392c0,0-20.882,30.191-42.77,28.43Z" transform="translate(-99.28 -99.504)" fill="#74a7cc"/>
    <path id="Caminho_17" data-name="Caminho 17" d="M208.32,271.212s24.907-32.464,38.5-29.948c0,0-15.1,28.942-38.5,33.246Z" transform="translate(-100.729 -95.346)" fill="#74a7cc"/>
    <path id="Caminho_18" data-name="Caminho 18" d="M222.2,227.257s22.014-24.88,33.911-24.827c0,0-17.378,33.246-34.818,32.94Z" transform="translate(-102.045 -91.42)" fill="#74a7cc"/>
    <path id="Caminho_19" data-name="Caminho 19" d="M230.275,194.548l21.268-51.828s1.06,46.85-23.973,61.442Z" transform="translate(-102.683 -85.362)" fill="#74a7cc"/>
    <path id="Caminho_20" data-name="Caminho 20" d="M240.174,131.5s3.522-43.282,1.258-46.8c0,0,15.2,35.986-1.4,65.926Z" transform="translate(-103.947 -79.475)" fill="#74a7cc"/>
    <path id="Caminho_21" data-name="Caminho 21" d="M155.418,637.508s-22.05-13.667-36.328,19.768c0,0,19.624,13.029,38.925-11.241Z" transform="translate(-91.676 -135.284)" fill="#74a7cc"/>
    <path id="Caminho_22" data-name="Caminho 22" d="M144.195,596.071s-27.046-12.337-40.165,22.571c0,0,20.891,14.377,42.627-13.748Z" transform="translate(-90.148 -131.146)" fill="#74a7cc"/>
    <path id="Caminho_23" data-name="Caminho 23" d="M138.721,560.393s-19.372-22.652-48.521,0c0,0,18.366,19.876,48.521,5.787Z" transform="translate(-88.744 -126.719)" fill="#74a7cc"/>
    <path id="Caminho_24" data-name="Caminho 24" d="M136.13,520.46S116.506,496.81,88.58,519.2c0,0,22.14,20.882,47.55,6.793Z" transform="translate(-88.58 -122.584)" fill="#74a7cc"/>
    <path id="Caminho_25" data-name="Caminho 25" d="M139.267,486.722s-13.766-34.1-43.687-19.435c0,0,16.174,30.236,42.465,25.1Z" transform="translate(-89.29 -117.922)" fill="#74a7cc"/>
    <path id="Caminho_26" data-name="Caminho 26" d="M146.478,446.678s-13.685-34.692-44.028-18.609c0,0,18.582,31.8,42.68,23.964Z" transform="translate(-89.987 -113.883)" fill="#74a7cc"/>
    <path id="Caminho_27" data-name="Caminho 27" d="M157.44,410.17s-5.391-38.035-30.55-41.44c0,0,5.337,40.111,27.163,48.3Z" transform="translate(-92.467 -108.294)" fill="#74a7cc"/>
    <path id="Caminho_28" data-name="Caminho 28" d="M165.844,376.4s-2.1-45.825-22.9-47.425c0,0,.7,34.782,20.559,53.912Z" transform="translate(-94.096 -104.26)" fill="#74a7cc"/>
    <path id="Caminho_29" data-name="Caminho 29" d="M181.728,337.171s-6.2-38.107-26.058-42.761c0,0,2.462,36.9,24.09,52.115Z" transform="translate(-95.387 -100.753)" fill="#74a7cc"/>
    <path id="Caminho_30" data-name="Caminho 30" d="M196.472,302.859s-.207-39.7-12.337-45.529c0,0-7.521,35.941,8.824,50.6Z" transform="translate(-98.1 -96.99)" fill="#74a7cc"/>
    <path id="Caminho_31" data-name="Caminho 31" d="M207.684,268.844s-1.7-40.874-14.26-46.634c0,0-4.295,32.347,12.382,49.312Z" transform="translate(-99.168 -93.427)" fill="#74a7cc"/>
    <path id="Caminho_32" data-name="Caminho 32" d="M222.9,229.055s-.072-33.246-9.039-41.045c0,0-8.913,36.418,4.358,47.73Z" transform="translate(-100.994 -89.957)" fill="#74a7cc"/>
    <path id="Caminho_33" data-name="Caminho 33" d="M228.048,192.332,219.324,137s-11.852,45.34,9.138,65.324Z" transform="translate(-101.508 -84.781)" fill="#74a7cc"/>
    <path id="Caminho_34" data-name="Caminho 34" d="M228.822,132.7S206.431,95.5,206.889,91.37c0,0,2.381,38.987,30.55,58.4Z" transform="translate(-100.583 -80.151)" fill="#74a7cc"/>
    <path id="Caminho_35" data-name="Caminho 35" d="M230.754,118.691S209.62,65.857,200.06,61.58c0,0,30.191,15.347,32.455,55.6Z" transform="translate(-99.891 -77.129)" fill="#74a7cc"/>
    <path id="Caminho_36" data-name="Caminho 36" d="M221.007,227.461l-1.447-.44c17.836-58.162,22.284-95.245,12.535-104.545l1.033-1.1C243.47,131.192,239.274,167.87,221.007,227.461Z" transform="translate(-101.87 -83.196)" fill="#444053"/>
    <path id="Caminho_37" data-name="Caminho 37" d="M166.269,375.142l-2.139-.764c1.9-5.328,3.936-10.738,6.074-16.066,18.618-46.4,34.468-89.566,44.63-122.7l1.86-.9c-10.18,33.2-25.752,78.02-44.388,124.483C170.177,364.423,168.146,369.8,166.269,375.142Z" transform="translate(-96.246 -94.695)" fill="#444053"/>
    <path id="Caminho_38" data-name="Caminho 38" d="M208.8,710.56c-.288-.314-29.193-32.868-49.348-88.443A327.228,327.228,0,0,1,139.984,520.78c-1.384-43.247,7.691-91.534,23.236-135.4l1.689,1.977c-34.9,98.453-21.035,182.816-2.642,233.619,19.939,55.071,48.521,87.266,48.8,87.589Z" transform="translate(-93.782 -109.983)" fill="#444053"/>
    <path id="Caminho_39" data-name="Caminho 39" d="M697.9,670.36s-20.37,24.862-4.2,62.448L531.066,803.343l-15.608,3.271-7.188-31.449,4.807-39.688V713.786Z" transform="translate(-131.164 -138.898)" fill="#d5d6db"/>
    <path id="Caminho_40" data-name="Caminho 40" d="M59.16,604.426l225.1-41.036L582.53,610.9,397.27,677.6Z" transform="translate(-6.003 -89.03)" fill="#74a7cc"/>
    <path id="Caminho_41" data-name="Caminho 41" d="M59.16,604.426l225.1-41.036L582.53,610.9,397.27,677.6Z" transform="translate(-6.003 -89.03)" fill="#74a7cc"/>
    <path id="Caminho_42" data-name="Caminho 42" d="M146.783,652.47s-21.053,39.886,3.208,76.726L483.8,801.528s-20.72-31.772,1.069-75.872Z" transform="translate(-93.626 -137.083)" fill="#74a7cc"/>
    <path id="Caminho_43" data-name="Caminho 43" d="M146.783,652.47s-21.053,39.886,3.208,76.726L483.8,801.528s-20.72-31.772,1.069-75.872Z" transform="translate(-93.626 -137.083)" opacity="0.1"/>
    <path id="Caminho_44" data-name="Caminho 44" d="M158.206,667.86s-12.031,29.184,0,48.072" transform="translate(-95.102 -138.645)" opacity="0.1"/>
    <path id="Caminho_45" data-name="Caminho 45" d="M485.116,809.38l186.356-79.52s10.423,2.246,3.684,9.884S488.71,817.018,488.71,817.018l-337.4-79.97Z" transform="translate(-94.945 -144.936)" fill="#74a7cc"/>
    <path id="Caminho_46" data-name="Caminho 46" d="M485.116,809.38l186.356-79.52s10.423,2.246,3.684,9.884S488.71,817.018,488.71,817.018l-337.4-79.97Z" transform="translate(-94.945 -144.936)" opacity="0.1"/>
    <path id="Caminho_47" data-name="Caminho 47" d="M504.908,742.86s-17.971,21.565,0,53.912" transform="translate(-130.012 -146.255)" opacity="0.1"/>
    <rect id="Retângulo_1" data-name="Retângulo 1" width="84.974" height="0.899" transform="translate(381.294 623.132) rotate(-18.45)" opacity="0.1"/>
    <rect id="Retângulo_2" data-name="Retângulo 2" width="103.538" height="0.899" transform="translate(381.263 630.366) rotate(-20.82)" opacity="0.1"/>
    <rect id="Retângulo_3" data-name="Retângulo 3" width="120.008" height="0.899" transform="translate(381.804 638.893) rotate(-22.26)" opacity="0.1"/>
    <rect id="Retângulo_4" data-name="Retângulo 4" width="138.141" height="0.899" transform="translate(383.1 646.412) rotate(-24.31)" opacity="0.1"/>
    <rect id="Retângulo_5" data-name="Retângulo 5" width="151.089" height="0.899" transform="matrix(0.916, -0.401, 0.401, 0.916, 384.099, 650.071)" opacity="0.1"/>
    <rect id="Retângulo_6" data-name="Retângulo 6" width="180.803" height="0.899" transform="translate(386.188 656.217) rotate(-23.36)" opacity="0.1"/>
    <path id="Caminho_48" data-name="Caminho 48" d="M152.23,610.186,310.372,576.94l96.341,18.42L277.126,637.142Z" transform="translate(-15.446 -90.405)" fill="#fff" opacity="0.3"/>
    <path id="Caminho_49" data-name="Caminho 49" d="M709.287,659.69s8.177,3.3,3.379,8.392S524,726.388,524,726.388Z" transform="translate(-132.76 -137.816)" fill="#74a7cc"/>
    <path id="Caminho_50" data-name="Caminho 50" d="M797.188,574.18S776.827,599.033,793,636.628L630.366,707.163l-15.608,3.289L607.57,679l4.879-39.679V617.606Z" transform="translate(-141.239 -129.14)" fill="#d5d6db"/>
    <path id="Caminho_51" data-name="Caminho 51" d="M158.46,508.237,383.552,467.21,681.83,514.725l-185.26,66.7Z" transform="translate(-16.078 -79.271)" fill="#3a3768"/>
    <path id="Caminho_52" data-name="Caminho 52" d="M246.042,556.29s-21.062,39.886,3.2,76.726l333.806,72.332s-20.711-31.8,1.105-75.881Z" transform="translate(-103.696 -127.324)" fill="#3a3768"/>
    <path id="Caminho_53" data-name="Caminho 53" d="M246.042,556.29s-21.062,39.886,3.2,76.726l333.806,72.332s-20.711-31.8,1.105-75.881l-105.56-22.85Z" transform="translate(-103.696 -127.324)" opacity="0.1"/>
    <path id="Caminho_54" data-name="Caminho 54" d="M257.5,571.68s-12.022,29.176,0,48.072" transform="translate(-105.177 -128.886)" opacity="0.1"/>
    <path id="Caminho_55" data-name="Caminho 55" d="M584.406,713.2l186.365-79.52s10.414,2.246,3.675,9.884S588,720.838,588,720.838l-337.4-79.97Z" transform="translate(-105.019 -135.177)" fill="#3a3768"/>
    <path id="Caminho_56" data-name="Caminho 56" d="M584.406,713.2l186.365-79.52s10.414,2.246,3.675,9.884S588,720.838,588,720.838l-337.4-79.97Z" transform="translate(-105.019 -135.177)" opacity="0.1"/>
    <path id="Caminho_57" data-name="Caminho 57" d="M604.2,646.68s-17.971,21.565,0,53.912" transform="translate(-140.087 -136.496)" opacity="0.1"/>
    <rect id="Retângulo_7" data-name="Retângulo 7" width="84.974" height="0.899" transform="translate(470.516 536.72) rotate(-18.45)" opacity="0.1"/>
    <rect id="Retângulo_8" data-name="Retângulo 8" width="103.538" height="0.899" transform="translate(470.497 543.951) rotate(-20.82)" opacity="0.1"/>
    <rect id="Retângulo_9" data-name="Retângulo 9" width="120.008" height="0.899" transform="translate(471.025 552.465) rotate(-22.26)" opacity="0.1"/>
    <rect id="Retângulo_10" data-name="Retângulo 10" width="138.141" height="0.899" transform="translate(472.331 559.986) rotate(-24.31)" opacity="0.1"/>
    <rect id="Retângulo_11" data-name="Retângulo 11" width="151.089" height="0.899" transform="matrix(0.916, -0.401, 0.401, 0.916, 473.317, 563.633)" opacity="0.1"/>
    <rect id="Retângulo_12" data-name="Retângulo 12" width="180.803" height="0.899" transform="translate(475.413 569.779) rotate(-23.36)" opacity="0.1"/>
    <path id="Caminho_58" data-name="Caminho 58" d="M251.53,514.006,409.672,480.76l96.341,18.42L376.426,540.962Z" transform="translate(-25.521 -80.646)" fill="#fff" opacity="0.45"/>
    <path id="Caminho_59" data-name="Caminho 59" d="M808.59,563.51s8.168,3.3,3.379,8.383S623.33,630.2,623.33,630.2Z" transform="translate(-142.838 -128.057)" fill="#3a3768"/>
    <path id="Caminho_60" data-name="Caminho 60" d="M806.591,464.15s-20.37,44.63-4.2,82.216L639.76,597.133l-15.572,3.3L617,568.982l4.807-39.688V507.576Z" transform="translate(-142.196 -117.975)" fill="#d5d6db"/>
    <path id="Caminho_61" data-name="Caminho 61" d="M167.89,398.216l225.1-41.036,298.278,47.514L506,471.393Z" transform="translate(-17.035 -68.107)" fill="#74a7cc"/>
    <path id="Caminho_62" data-name="Caminho 62" d="M255.51,446.26s-21.089,39.886,3.172,76.726l333.806,72.332s-20.72-31.8,1.1-75.872Z" transform="translate(-104.655 -116.16)" fill="#74a7cc"/>
    <path id="Caminho_63" data-name="Caminho 63" d="M255.51,446.26s-21.089,39.886,3.172,76.726l333.806,72.332s-20.72-31.8,1.1-75.872Z" transform="translate(-104.655 -116.16)" opacity="0.1"/>
    <path id="Caminho_64" data-name="Caminho 64" d="M266.936,461.65s-12.031,29.184,0,48.072" transform="translate(-106.134 -117.722)" opacity="0.1"/>
    <path id="Caminho_65" data-name="Caminho 65" d="M593.846,603.982,780.2,544.229s10.423,2.246,3.684,9.884S597.44,611.62,597.44,611.62l-337.4-79.97Z" transform="translate(-105.977 -124.824)" fill="#74a7cc"/>
    <path id="Caminho_66" data-name="Caminho 66" d="M593.846,603.982,780.2,544.229s10.423,2.246,3.684,9.884S597.44,611.62,597.44,611.62l-337.4-79.97Z" transform="translate(-105.977 -124.824)" opacity="0.1"/>
    <path id="Caminho_67" data-name="Caminho 67" d="M613.638,536.65s-17.971,21.565,0,53.912" transform="translate(-141.044 -125.332)" opacity="0.1"/>
    <rect id="Retângulo_13" data-name="Retângulo 13" width="84.974" height="0.899" transform="translate(479 437.852) rotate(-18.45)" opacity="0.1"/>
    <rect id="Retângulo_14" data-name="Retângulo 14" width="103.538" height="0.899" transform="translate(478.976 445.088) rotate(-20.82)" opacity="0.1"/>
    <rect id="Retângulo_15" data-name="Retângulo 15" width="120.008" height="0.899" transform="translate(479.495 453.607) rotate(-22.26)" opacity="0.1"/>
    <rect id="Retângulo_16" data-name="Retângulo 16" width="138.141" height="0.899" transform="translate(480.814 461.12) rotate(-24.31)" opacity="0.1"/>
    <rect id="Retângulo_17" data-name="Retângulo 17" width="151.089" height="0.899" transform="matrix(0.916, -0.401, 0.401, 0.916, 481.804, 464.776)" opacity="0.1"/>
    <rect id="Retângulo_18" data-name="Retângulo 18" width="180.803" height="0.899" transform="translate(483.897 470.927) rotate(-23.36)" opacity="0.1"/>
    <path id="Caminho_68" data-name="Caminho 68" d="M260.96,403.976,419.1,370.73l96.341,18.42L385.856,430.932Z" transform="translate(-26.478 -69.482)" fill="#fff" opacity="0.3"/>
    <path id="Caminho_69" data-name="Caminho 69" d="M818.02,453.48s8.177,3.3,3.378,8.392S632.76,520.178,632.76,520.178Z" transform="translate(-143.795 -116.893)" fill="#74a7cc"/>
    <path id="Caminho_70" data-name="Caminho 70" d="M395.558,149.915s-34.144-2.058-30.155,21.9c0,0-.8,4.232,3.037,6.155,0,0,.063-1.8,3.5-1.177a15.321,15.321,0,0,0,3.72.18A7.746,7.746,0,0,0,380.2,175.1h0s9.605-3.972,13.343-19.678c0,0,2.767-3.423,2.7-4.3l-5.787,2.462s1.968,4.16.422,7.62c0,0-.189-7.467-1.3-7.3-.225,0-2.992,1.447-2.992,1.447s3.387,7.251.827,12.517c0,0,.97-8.931-1.887-12l-4.061,2.372s3.963,7.485,1.276,13.595c0,0,.692-9.372-2.13-13.02l-3.684,2.875s3.729,7.377,1.456,12.445c0,0-.3-10.908-2.246-11.735,0,0-3.226,2.839-3.711,4.007,0,0,2.552,5.391.961,8.186,0,0-.961-7.269-1.8-7.305,0,0-3.208,4.816-3.54,8.087a17.486,17.486,0,0,1,2.758-8.572,9.623,9.623,0,0,0-4.906,2.543s.494-3.405,5.706-3.7c0,0,2.651-3.657,3.361-3.873,0,0-5.185-.44-8.32.952,0,0,2.767-3.208,9.264-1.8l3.594-2.965s-6.811-.9-9.7.1c0,0,3.334-2.839,10.684-.773l3.963-2.363s-5.814-1.249-9.273-.8c0,0,3.648-1.968,10.432.162l2.821-1.267s-4.25-.836-5.5-.97-1.312-.476-1.312-.476a14.834,14.834,0,0,1,8,.9S395.675,150.292,395.558,149.915Z" transform="translate(-116.635 -86.087)" fill="#74a7cc"/>
    <path id="Caminho_71" data-name="Caminho 71" d="M930.158,259.495s-34.144-2.058-30.155,21.9c0,0-.8,4.232,3.037,6.155,0,0,.063-1.8,3.5-1.177a15.831,15.831,0,0,0,3.72.18,7.719,7.719,0,0,0,4.493-1.869h0S924.372,280.709,928.1,265c0,0,2.767-3.423,2.7-4.3l-5.769,2.462s1.968,4.16.422,7.62c0,0-.189-7.467-1.294-7.3-.225,0-3,1.447-3,1.447s3.388,7.251.836,12.517c0,0,.97-8.931-1.9-12l-4.061,2.372s3.963,7.485,1.276,13.595c0,0,.692-9.372-2.13-13.02l-3.675,2.875s3.72,7.377,1.447,12.445c0,0-.3-10.908-2.246-11.735,0,0-3.217,2.839-3.711,4.007,0,0,2.552,5.391.97,8.186,0,0-.97-7.269-1.8-7.305,0,0-3.208,4.816-3.54,8.087a17.431,17.431,0,0,1,2.767-8.572,9.668,9.668,0,0,0-4.915,2.543s.5-3.405,5.706-3.7c0,0,2.651-3.657,3.361-3.882,0,0-5.176-.431-8.32.961,0,0,2.767-3.208,9.264-1.8l3.594-2.965s-6.82-.9-9.7.1c0,0,3.325-2.839,10.684-.773l3.954-2.363s-5.813-1.249-9.273-.8c0,0,3.648-1.968,10.432.162l2.83-1.267s-4.259-.836-5.508-.97-1.312-.476-1.312-.476a14.727,14.727,0,0,1,8,.9S930.266,259.872,930.158,259.495Z" transform="translate(-170.878 -97.206)" fill="#74a7cc" opacity="0.1"/>
    <path id="Caminho_72" data-name="Caminho 72" d="M458.741,312.378s-14.88-30.847-33.821-15.643c0,0-4.088,1.366-3.891,5.652,0,0,1.572-.818,2.7,2.489a15.919,15.919,0,0,0,1.653,3.325,7.754,7.754,0,0,0,3.855,3.055h0s8.15,6.451,23.685,2.049c0,0,4.34.746,5.05.225l-4.96-3.837s-2.7,3.747-6.451,4.079c0,0,6.434-3.8,5.742-4.681-.144-.18-2.7-1.914-2.7-1.914s-4.681,6.5-10.522,6.829c0,0,8.267-3.5,9.542-7.5l-4.043-2.39s-4.609,7.116-11.25,7.745c0,0,8.518-3.963,10.324-8.2l-4.3-1.8S434.732,308.7,429.2,309.2c0,0,9.381-5.58,9.147-7.691,0,0-4.052-1.42-5.31-1.285,0,0-3.432,4.843-6.667,4.843,0,0,5.867-4.394,5.508-5.1,0,0-5.769-.449-8.806.9a17.494,17.494,0,0,1,8.833-1.8,9.677,9.677,0,0,0-4.618-3.046s3.217-1.222,6.011,3.172c0,0,4.493.53,5.023,1.042,0,0-2.147-4.726-4.888-6.784,0,0,4.151.836,6.047,7.188l4.358,1.725s-2.507-6.4-4.816-8.419c0,0,4.1,1.519,5.885,8.985l3.989,2.3s-1.734-5.688-3.819-8.482c0,0,3.5,2.228,4.942,9.183l2.489,1.851s-1.348-4.124-1.8-5.274-.225-1.384-.225-1.384a14.745,14.745,0,0,1,3.127,7.413S458.417,312.648,458.741,312.378Z" transform="translate(-122.311 -100.561)" fill="#74a7cc" opacity="0.1"/>
    <path id="Caminho_73" data-name="Caminho 73" d="M842.521,208.758S827.65,177.911,808.7,193.114a5.847,5.847,0,0,0-3.891,5.652s1.581-.809,2.7,2.489a15.582,15.582,0,0,0,1.662,3.334,7.709,7.709,0,0,0,3.846,3.046h0s8.159,6.451,23.685,2.058c0,0,4.34.737,5.059.216l-4.933-3.846s-2.7,3.756-6.442,4.088c0,0,6.425-3.81,5.733-4.69-.144-.18-2.7-1.914-2.7-1.914s-4.672,6.5-10.522,6.829c0,0,8.276-3.5,9.551-7.494l-4.106-2.372s-4.6,7.107-11.25,7.745c0,0,8.518-3.972,10.333-8.213l-4.3-1.8s-4.627,6.856-10.153,7.341c0,0,9.372-5.58,9.138-7.682,0,0-4.043-1.429-5.3-1.285,0,0-3.432,4.834-6.676,4.834,0,0,5.876-4.394,5.517-5.1,0,0-5.769-.449-8.815.9a17.485,17.485,0,0,1,8.833-1.8,9.623,9.623,0,0,0-4.609-3.046s3.217-1.222,6.011,3.172c0,0,4.493.539,5.023,1.051,0,0-2.147-4.735-4.9-6.793,0,0,4.151.845,6.047,7.233l4.367,1.725s-2.507-6.407-4.816-8.428c0,0,4.1,1.519,5.876,8.985l4,2.3s-1.743-5.679-3.828-8.482c0,0,3.5,2.228,4.942,9.183l2.489,1.851s-1.339-4.124-1.8-5.274-.225-1.375-.225-1.375a14.781,14.781,0,0,1,3.118,7.413S842.242,209.045,842.521,208.758Z" transform="translate(-161.251 -90.048)" fill="#74a7cc" opacity="0.1"/>
    <path id="Caminho_74" data-name="Caminho 74" d="M895.408,378.567s-14.871-30.856-33.848-15.652a5.847,5.847,0,0,0-3.891,5.652s1.581-.809,2.7,2.489a15.574,15.574,0,0,0,1.653,3.334,7.709,7.709,0,0,0,3.846,3.046h0s8.159,6.46,23.694,2.058c0,0,4.331.746,5.05.216l-4.96-3.837s-2.7,3.756-6.452,4.088c0,0,6.425-3.81,5.733-4.69-.144-.18-2.7-1.914-2.7-1.914s-4.672,6.5-10.522,6.838c0,0,8.276-3.513,9.551-7.5l-4.052-2.39s-4.6,7.116-11.25,7.745c0,0,8.518-3.972,10.333-8.213l-4.3-1.8s-4.627,6.847-10.153,7.341c0,0,9.381-5.58,9.147-7.691,0,0-4.052-1.429-5.31-1.285,0,0-3.432,4.834-6.676,4.834,0,0,5.876-4.394,5.517-5.1,0,0-5.769-.449-8.815.9a17.539,17.539,0,0,1,8.842-1.8,9.605,9.605,0,0,0-4.619-3.046s3.217-1.231,6.011,3.172c0,0,4.493.53,5.023,1.042,0,0-2.148-4.726-4.888-6.793,0,0,4.151.845,6.047,7.233l4.358,1.725s-2.507-6.407-4.816-8.419c0,0,4.1,1.51,5.876,8.985l4,2.291s-1.743-5.679-3.828-8.482c0,0,3.5,2.228,4.951,9.192l2.489,1.8s-1.348-4.124-1.8-5.274-.225-1.375-.225-1.375a14.691,14.691,0,0,1,3.118,7.413S895.129,378.837,895.408,378.567Z" transform="translate(-166.615 -107.276)" fill="#74a7cc" opacity="0.1"/>
    <ellipse id="Elipse_1" data-name="Elipse 1" cx="20.657" cy="2.309" rx="20.657" ry="2.309" transform="translate(160.802 668.111)" fill="#74a7cc" opacity="0.1"/>
    <ellipse id="Elipse_2" data-name="Elipse 2" cx="20.657" cy="2.309" rx="20.657" ry="2.309" transform="translate(25.384 628.863)" fill="#74a7cc" opacity="0.1"/>
    <ellipse id="Elipse_3" data-name="Elipse 3" cx="20.657" cy="2.309" rx="20.657" ry="2.309" transform="translate(264.026 694.177)" fill="#74a7cc" opacity="0.1"/>
    <ellipse id="Elipse_4" data-name="Elipse 4" cx="20.657" cy="2.309" rx="20.657" ry="2.309" transform="translate(792.993 637.399)" fill="#74a7cc" opacity="0.1"/>
    <ellipse id="Elipse_5" data-name="Elipse 5" cx="20.657" cy="2.309" rx="20.657" ry="2.309" transform="translate(621.095 626.194)" fill="#74a7cc" opacity="0.1"/>
    <ellipse id="Elipse_6" data-name="Elipse 6" cx="24.431" cy="4.196" rx="24.431" ry="4.196" transform="translate(506.118 677.069)" fill="#74a7cc" opacity="0.1"/>
    <path id="Caminho_75" data-name="Caminho 75" d="M688.744,790.14s-34.018,17.575-16.443,38.278c0,0,1.653,4.493,6.433,4.178,0,0-.952-1.743,2.7-3.136a17.524,17.524,0,0,0,3.675-1.95,8.634,8.634,0,0,0,3.289-4.394h0s6.955-9.309,1.563-26.534c0,0,.7-4.87.09-5.661l-4.133,5.67s4.268,2.866,4.762,7.08c0,0-4.493-7.071-5.391-6.29-.2.162-2.049,3.1-2.049,3.1s7.4,5.023,7.952,11.546c0,0-4.169-9.138-8.671-10.441l-2.579,4.6s8.087,4.924,8.985,12.328c0,0-4.7-9.39-9.5-11.286l-1.9,4.861s7.8,4.96,8.518,11.124c0,0-6.523-10.306-8.868-9.983,0,0-1.474,4.565-1.276,5.975,0,0,5.508,3.684,5.607,7.3,0,0-5.086-6.424-5.867-6,0,0-.324,6.461,1.24,9.821a19.387,19.387,0,0,1-2.255-9.821,10.782,10.782,0,0,0-3.262,5.247s-1.465-3.549,3.36-6.82c0,0,.458-5.023,1.015-5.643,0,0-5.22,2.552-7.44,5.679,0,0,.818-4.663,7.9-6.982l1.8-4.924s-7.08,3-9.264,5.643c0,0,1.572-4.628,9.821-6.847L681,801.372s-6.29,2.121-9.363,4.493c0,0,2.381-3.98,10.118-5.813l1.986-2.83s-4.565,1.626-5.841,2.21-1.528.3-1.528.3a16.524,16.524,0,0,1,8.186-3.72S689.058,790.445,688.744,790.14Z" transform="translate(-147.295 -151.052)" fill="#74a7cc"/>
    <path id="Caminho_76" data-name="Caminho 76" d="M769.126,382.429c-5.876-15.967-38.224-17.468-52.259-13.4-9.974,2.9-31,6.173-42.231,7.817l-.728-.692c1.456-.431,1.492-1.492,1.312-3.064a47.946,47.946,0,0,1,.09-6.218c6.883,2.139,13.011-2.92,13.011-2.92h0c8.087-3.594,5.912-18.977,7.458-23.182,1.159-3.145,2.408-21.673,2.965-30.91h.117l.063-3.1c.081-1.339.117-2.121.117-2.121s.791-22.589,2.336-27.163c1.438-4.205,2.606-25.393,2.785-28.753v-.44l-.117-1.959c.081-1.429.117-3.019.108-4.69,0-7.682-.8-17.36-.9-18.923V221.9c.063-3.28-.35-19.7-14.323-25.914-5.149-2.3-11.34-5.041-17.333-7.709-1.545-13.343-5.077-26.615-4.771-40.057,0-2.022.18-4.043.377-6.056,0,.584-.063,1.177-.072,1.8v3.918c.53-16.812,6.883-33.713,6.29-50.165-.054,1.608-.171,3.226-.324,4.843a52.233,52.233,0,0,0-1.725-16.524,9.778,9.778,0,0,0-2.821-5.122,11.618,11.618,0,0,0-4.924-1.95A99.023,99.023,0,0,0,650.7,76.55a19.963,19.963,0,0,0-2.911-5.652c-9.111-12.508-22.607-24.26-38.565-26.956-8.006-1.348-17.216-.225-22.661,5.5a16.987,16.987,0,0,0-1.6,1.617c-2.929,3.5-4.187,8.087-7.188,11.573-.2.234-.422.449-.638.674-5.876,5.256-15.032,6.353-21.565,11.07a25.892,25.892,0,0,0-3.226,2.812,54.7,54.7,0,0,0-7.044,8.563c-2.938,4.133-5.957,8.437-6.892,13.37-1.878,9.884,4.852,19.256,6.1,29.2,2.785,22.257-21.843,42.007-17.18,63.967a29.292,29.292,0,0,0,7.925,14.224c-9.605,8.7-17.782,17.135-17.782,17.135v.5h-1.518l.153,1.8h-.153l.836,9.749-.836,14.2v1.339h.054c.279,5.2,1.384,23.91,2.7,27.855,1.545,4.574,2.327,27.163,2.327,27.163s1.707,31.925,3.271,36.148-.656,19.561,7.458,23.182h0a17.073,17.073,0,0,0,8.15,3.379c-.413,3.361-.153,5.8,1.186,6.559a3.917,3.917,0,0,0,1.887.539,20.036,20.036,0,0,0-1.465,2.561A38.059,38.059,0,0,1,532.1,376.4c-8.716-3.594-37.64-11.681-46.041-5.993s-28.618,10.845-19.283,33.74,13.685,23.47,13.685,23.47a33.246,33.246,0,0,1,7.467,7.5c2.8,4.214,28.924,13.855,35.456,13.855a63.961,63.961,0,0,1,8.311.413s-7.089,6.218-6.146,9.83-2.156,32.527-2.156,32.527,7.188,7.242,10.261-2.255l.108.144c.575.782,3.684,4.313,9.534-.144a53.443,53.443,0,0,1,7.6-4.816l28.322-4.008a80.167,80.167,0,0,1,8.869-.063c4.493.368,8.9-2.291,11.681-4.349,5.867,2.228,12.463,4.663,15.6,5.553,6.362,1.8,35.6,9.641,42.438,7.188a9.5,9.5,0,0,0,3.684-2.624l6.523.207-3.055.611s5.948.1,14.035.207l-.341.2,10.144-.09c14.844.135,31.521.18,33.713-.314,3.432-.764,21.268-.225,26.525,0H750.5s19.6-3.909,11.51-23.793c-6.218-15.275-25.33-19.714-33.812-20.936,2.39-.476,4.448-.845,5.813-1.06,5.921-.9,17.423-6.29,18.357-8.132s10.576-7.188,13.065-10.234S775.029,398.4,769.126,382.429Zm-162.32,44.684-.961.315-.647.216-1.24,1.222c-.988-.665-2.049-1.366-3.154-2.085C602.753,426.9,604.757,427.014,606.806,427.113Zm85.639,25.321Z" transform="translate(-126.709 -75.287)" fill="url(#linear-gradient)"/>
    <path id="Caminho_77" data-name="Caminho 77" d="M686.65,352.486s13.748,35.941,21.565,32.347,5.7-18.869,7.188-23.056,3.145-35.941,3.145-35.941.755-22.463,2.246-27.01c1.384-4.178,2.507-25.249,2.7-28.564v-.44l-1.483-26.058-8.392-2.094-19.462,7.188-2.7,15.392-1.051,6.011-.449,2.561Z" transform="translate(-149.263 -95.402)" fill="#be6f72"/>
    <path id="Caminho_78" data-name="Caminho 78" d="M691.69,358.3s13.119,10.737,17.072,11.681,6.38,9.318,6.38,9.318" transform="translate(-149.774 -107.235)" opacity="0.1"/>
    <path id="Caminho_79" data-name="Caminho 79" d="M562.84,354.236s-13.748,35.941-21.565,32.347-5.7-18.869-7.188-23.056-3.145-35.941-3.145-35.941-.755-22.463-2.246-27.01c-1.384-4.178-2.507-25.249-2.7-28.564v-.44l1.492-26.058,8.392-2.094,19.462,7.188,2.7,15.392,1.051,6.011.449,2.561Z" transform="translate(-132.963 -95.579)" fill="#be6f72"/>
    <rect id="Retângulo_19" data-name="Retângulo 19" width="30.685" height="47.829" transform="translate(488.713 66.317)" fill="#3e373a"/>
    <rect id="Retângulo_20" data-name="Retângulo 20" width="30.685" height="47.829" transform="translate(488.713 66.317)" opacity="0.1"/>
    <path id="Caminho_80" data-name="Caminho 80" d="M560.157,406.267s-10.486,11.528-6.6,13.622,29.059,41.333,29.059,41.333,82.665,10.18,98.255-5.095,15.275-42.564,15.275-42.564-12.526,2.7-13.891,1.231-8.868-8.527-8.868-8.527S567.346,399.834,560.157,406.267Z" transform="translate(-135.671 -111.812)" fill="#4b4b5b"/>
    <path id="Caminho_81" data-name="Caminho 81" d="M560.157,406.267s-10.486,11.528-6.6,13.622,29.059,41.333,29.059,41.333,82.665,10.18,98.255-5.095,15.275-42.564,15.275-42.564-12.526,2.7-13.891,1.231-8.868-8.527-8.868-8.527S567.346,399.834,560.157,406.267Z" transform="translate(-135.671 -111.812)" opacity="0.02"/>
    <path id="Caminho_82" data-name="Caminho 82" d="M706.433,235.081l-26.956,21.565-8.15.593-2.992.216-50.255,3.684-52.115-3.81-7.754-.566-9.884-.719L527.66,236.276s14.628-15.67,27.441-26.246c5.05-4.178,9.821-7.557,13.3-8.887l.593-.207a14.79,14.79,0,0,0,5.7-3.972c10.118-10.432,19.471-36.175,19.471-36.175s44.63-23.056,39.239,7.188,20.064,22.769,20.064,22.769l8.392,3.828,3.316,1.519,8.455,3.873,19.076,8.752C707.673,215.61,706.433,235.081,706.433,235.081Z" transform="translate(-133.131 -86.342)" fill="#be6f72"/>
    <circle id="Elipse_7" data-name="Elipse 7" cx="40.138" cy="40.138" r="40.138" transform="translate(442.717 18.802)" opacity="0.1"/>
    <path id="Caminho_83" data-name="Caminho 83" d="M706.327,269.15H526v-.44l1.492-26.058s14.628-15.67,27.441-26.246l113.216-4.493,5.265-5.553,19.076,8.752c14.979,6.883,13.775,26.354,13.775,26.354S708.313,264.028,706.327,269.15Z" transform="translate(-132.963 -91.819)" opacity="0.1"/>
    <path id="Caminho_84" data-name="Caminho 84" d="M706.327,268.15H526v-.44l1.492-26.058s14.628-15.67,27.441-26.246l113.216-4.493,5.265-5.553,19.076,8.752c14.979,6.883,13.775,26.354,13.775,26.354S708.313,263.028,706.327,268.15Z" transform="translate(-132.963 -91.717)" fill="#e7c7ca"/>
    <path id="Caminho_85" data-name="Caminho 85" d="M592.522,193.033s28.448,36.247,66.339-.746,4.2,82.512,4.2,82.512l-81.767,9.7Z" transform="translate(-138.573 -89.67)" opacity="0.1"/>
    <path id="Caminho_86" data-name="Caminho 86" d="M592.522,195.033s28.448,36.247,66.339-.746,4.2,82.512,4.2,82.512l-81.767,9.7Z" transform="translate(-138.573 -89.873)" fill="#e7c7ca"/>
    <path id="Caminho_87" data-name="Caminho 87" d="M667.55,202.833l3.01,45.906,3.226,15.275,2.462,11.681s6.29,89.854,4.493,94.346.9,8.087,1.276,10.477-.378,8.392-.081,11.088,0,3.891-6.883,2.929-16.479-2.633-16.479-2.633-24.26,1.8-32.644-1.2-24.26-3-24.26-3-23.964.6-31.745-.3S557.937,397,552.852,394s5.984-32.042,9.578-40.434-4.789-29.652-4.789-29.652l10.782-59.816,2.4-13.559V207.909l.593-.207a14.79,14.79,0,0,0,5.7-3.972l2.7,42.9,84.462,3V201.35" transform="translate(-135.554 -91.311)" opacity="0.1"/>
    <path id="Caminho_88" data-name="Caminho 88" d="M667.55,200.833l3.01,45.906,3.226,15.275,2.462,11.681s6.29,89.854,4.493,94.346.9,8.087,1.276,10.477-.378,8.392-.081,11.088,0,3.891-6.883,2.929-16.479-2.633-16.479-2.633-24.26,1.8-32.644-1.2-24.26-3-24.26-3-23.964.6-31.745-.3S557.937,395,552.852,392s5.984-32.042,9.578-40.434-4.789-29.652-4.789-29.652l10.782-59.815,2.4-13.559V205.909l.593-.207a14.79,14.79,0,0,0,5.7-3.972l2.7,42.9,84.462,3V199.35" transform="translate(-135.554 -91.108)" fill="#e7c7ca"/>
    <path id="Caminho_89" data-name="Caminho 89" d="M675.844,89.6a9.9,9.9,0,0,0-2.7-5.086,11.034,11.034,0,0,0-4.744-1.941,93.736,93.736,0,0,0-12.472-2.39,19.964,19.964,0,0,0-2.7-5.6c-8.806-12.436-21.834-24.162-37.163-26.812-8.024-1.393-17.324-.144-22.463,6.182-2.821,3.477-4.034,8.087-6.883,11.5-5.49,6.631-15.4,7.449-22.32,12.579-3.693,2.7-6.371,6.6-8.985,10.4-2.83,4.106-5.742,8.383-6.64,13.289-1.8,9.8,4.681,19.148,5.876,29.041,2.7,22.131-21.026,41.764-16.542,63.6,2.615,12.732,14.377,21.7,26.543,26.246,4.286,1.608,9.183,3.208,11.187,7.323.9,1.8,1.051,3.873,1.9,5.688,2.839,6.056,12.175,6.29,17.189,1.878s6.6-11.546,7.188-18.2c2.408-29.077-9.237-57.8-7.88-86.951.4-8.815,2.884-18.815,10.782-22.8,10.63-5.391,23.416,3.594,35.115,1.878a69.664,69.664,0,0,1,3.36,42.51c-1.86,7.754-5.077,15.275-5.31,23.272-.35,12.175,6.218,23.3,11.9,34.063a18.123,18.123,0,0,1,2.4,6.568A15.831,15.831,0,0,1,651.2,222.7c-3.208,8.635-8.743,16.65-9.372,25.842a4.178,4.178,0,0,0,.674,3.073,3.864,3.864,0,0,0,2.318,1.042c9.7,1.662,18.1-6.937,22.832-15.572a73,73,0,0,0,9-31.017c.979-18.294-5.58-36.292-5.176-54.6C671.944,130.644,681.352,109.681,675.844,89.6Z" transform="translate(-134.135 -75.676)" opacity="0.1"/>
    <path id="Caminho_90" data-name="Caminho 90" d="M676.844,88.6a9.9,9.9,0,0,0-2.7-5.086,11.034,11.034,0,0,0-4.744-1.941,93.729,93.729,0,0,0-12.472-2.39,19.964,19.964,0,0,0-2.7-5.6c-8.806-12.436-21.834-24.162-37.163-26.812-8.024-1.393-17.324-.144-22.463,6.182-2.821,3.477-4.034,8.087-6.883,11.5-5.49,6.631-15.4,7.449-22.32,12.579-3.693,2.7-6.371,6.6-8.985,10.4-2.83,4.106-5.742,8.383-6.64,13.289-1.8,9.8,4.681,19.148,5.876,29.041,2.7,22.131-21.026,41.764-16.542,63.6,2.615,12.732,14.377,21.7,26.543,26.246,4.286,1.608,9.183,3.208,11.187,7.323.9,1.8,1.051,3.873,1.9,5.688,2.839,6.056,12.175,6.29,17.189,1.878s6.6-11.546,7.188-18.2c2.408-29.077-9.237-57.8-7.88-86.951.4-8.815,2.884-18.815,10.782-22.8,10.63-5.391,23.416,3.594,35.115,1.878a69.663,69.663,0,0,1,3.36,42.51c-1.86,7.754-5.077,15.275-5.31,23.272-.35,12.175,6.218,23.3,11.9,34.063a18.127,18.127,0,0,1,2.4,6.568A15.832,15.832,0,0,1,652.2,221.7c-3.208,8.635-8.743,16.65-9.372,25.842a4.178,4.178,0,0,0,.674,3.073,3.864,3.864,0,0,0,2.318,1.042c9.7,1.662,18.1-6.937,22.832-15.572a73,73,0,0,0,9-31.017c.979-18.294-5.58-36.292-5.176-54.6C672.944,129.644,682.352,108.681,676.844,88.6Z" transform="translate(-134.236 -75.574)" fill="#3e373a"/>
    <path id="Caminho_91" data-name="Caminho 91" d="M581.79,489.874l35.645,1.141-5.113-26.435-27.307,2.6Z" transform="translate(-59.031 -79.005)" fill="#c3c7d9"/>
    <path id="Caminho_92" data-name="Caminho 92" d="M774.587,460.131c-2.4,2.992-11.681,8.383-12.579,10.18S750.03,477.5,744.333,478.4s-23.658,4.8-26.956,6.892c-2.363,1.51-21.331,6.29-33.794,8.94a95.916,95.916,0,0,1-10.234,1.842c-5.391.3-64.389-19.768-64.389-19.768l11.375-11.681.629-.216c3.217-1.087,18.079-6.11,26.327-8.5,9.291-2.7,20.073-13.775,20.073-13.775s15.868-5.391,17.971-5.993-5.391-20.963-5.391-20.963,34.441-4.78,47.919-8.833,44.63-2.552,50.318,13.325S777.022,457.139,774.587,460.131Z" transform="translate(-141.38 -111.916)" fill="#4b4b5b"/>
    <path id="Caminho_93" data-name="Caminho 93" d="M610.03,519.165s-6.883,7.188-13.775,6.6-30.99,1.8-30.99,1.8a48.316,48.316,0,0,0-12.139,7.035c-5.634,4.439-8.626.9-9.183.144l-.1-.144c-3,9.444-9.884,2.246-9.884,2.246s2.992-28.753,2.076-32.347,5.921-9.767,5.921-9.767l8.087-2.058,20.487-5.247,29.355,10.18Z" transform="translate(-133.77 -120.337)" fill="#e7c7ca"/>
    <path id="Caminho_94" data-name="Caminho 94" d="M550.008,493.26l-6.065,42.069-.1-.144c-3,9.444-9.884,2.246-9.884,2.246s2.992-28.753,2.076-32.347,5.921-9.767,5.921-9.767Z" transform="translate(-133.77 -120.929)" opacity="0.1"/>
    <path id="Caminho_95" data-name="Caminho 95" d="M599,360.08s15.868,5.391,29.652,0" transform="translate(-140.37 -107.416)" opacity="0.1"/>
    <path id="Caminho_96" data-name="Caminho 96" d="M659.29,371.42s6.586,3.289,11.681,0" transform="translate(-146.487 -108.567)" opacity="0.1"/>
    <path id="Caminho_97" data-name="Caminho 97" d="M659.29,379.93s11.079,1.483,13.182-1.51" transform="translate(-146.487 -109.277)" opacity="0.1"/>
    <path id="Caminho_98" data-name="Caminho 98" d="M655.29,398.04s20.81-2.7,25.977-6.29" transform="translate(-146.081 -110.629)" opacity="0.1"/>
    <path id="Caminho_99" data-name="Caminho 99" d="M584.62,391.75s11.681,6.586,20.37,6.29" transform="translate(-138.911 -110.629)" opacity="0.1"/>
    <path id="Caminho_100" data-name="Caminho 100" d="M683.573,501a95.909,95.909,0,0,1-10.234,1.842c-5.391.3-64.389-19.768-64.389-19.768L620.325,471.4l.629-.216c1.8,1.267,3.271,2.354,4.322,3.181,4.951,3.9,9.731-1.2,11.528-1.2s17.369,12.876,17.369,12.876,14.377,3.3,16.776,6.29,10.782,2.4,12.274,4.493C683.672,497.471,683.726,499.062,683.573,501Z" transform="translate(-141.379 -118.689)" opacity="0.1"/>
    <path id="Caminho_101" data-name="Caminho 101" d="M558.847,416.549s-14.538.836-22.922-2.7S499.688,402.173,491.6,407.9s-27.558,10.782-18.573,33.551S486.21,464.81,486.21,464.81a32.437,32.437,0,0,1,7.188,7.458c2.7,4.2,27.855,13.774,34.144,13.774s17.369,0,32.94,10.782,29.652,11.987,29.652,11.987,19.768,8.087,25.923,9.884,34.279,9.578,40.874,7.188,10.782-17.378,10.782-17.378,2.992-13.478,1.492-15.572-9.884-1.5-12.274-4.493-16.776-6.29-16.776-6.29-15.536-12.885-17.333-12.885-6.577,5.086-11.528,1.2a263,263,0,0,0-31.008-19.768C568.911,444.7,558.847,416.549,558.847,416.549Z" transform="translate(-127.353 -112.067)" fill="#4b4b5b"/>
    <path id="Caminho_102" data-name="Caminho 102" d="M536.27,427.381A17.162,17.162,0,0,1,551,431.271c7.188,5.993,31.377,18.025,31.377,18.025" transform="translate(-134.005 -114.209)" opacity="0.1"/>
    <path id="Caminho_103" data-name="Caminho 103" d="M731.995,427s-32.051,4.852-38.035,11.438" transform="translate(-150.005 -114.206)" opacity="0.1"/>
    <path id="Caminho_104" data-name="Caminho 104" d="M767.989,532.347h-1.411c-5.068-.18-22.239-.719-25.545,0-3.891.9-55.413,0-55.413,0l10.073-2.094s-3.738-13.1-1.366-14.188c0,0-13.478-8.878-3.316-14.871s21.116-3.468,21.116-3.468l25.509-8.644,4.9-1.662s28.753,1.5,36.534,21.268S767.989,532.347,767.989,532.347Z" transform="translate(-149.158 -120.336)" fill="#e7c7ca"/>
    <path id="Caminho_105" data-name="Caminho 105" d="M773.862,532.352h-1.411c8.365-6.9,27.288-27.909-28.942-43.22l4.9-1.662s28.753,1.5,36.534,21.268S773.862,532.352,773.862,532.352Z" transform="translate(-155.032 -120.342)" opacity="0.1"/>
    <circle id="Elipse_8" data-name="Elipse 8" cx="1.572" cy="1.572" r="1.572" transform="translate(564.397 385.575)" fill="#4b4b5b"/>
    <circle id="Elipse_9" data-name="Elipse 9" cx="1.572" cy="1.572" r="1.572" transform="translate(555.259 388.172)" fill="#4b4b5b"/>
    <g id="Grupo_1" data-name="Grupo 1" transform="translate(404.559 24.643)" opacity="0.1">
      <path id="Caminho_106" data-name="Caminho 106" d="M652.963,139.16a69.717,69.717,0,0,0-5.158-28.879c-11.681,1.743-24.476-7.269-35.115-1.878-7.871,3.99-10.342,13.99-10.782,22.8-.108,2.327-.126,4.654-.081,6.982,0-.827,0-1.662.081-2.489.413-8.815,2.884-18.815,10.782-22.8,10.639-5.391,23.416,3.594,35.115,1.878A69.53,69.53,0,0,1,652.963,139.16Z" transform="translate(-545.213 -106.346)"/>
      <path id="Caminho_107" data-name="Caminho 107" d="M557.29,137.72a29.947,29.947,0,0,0-.117-5.876c-.953-7.907-5.274-15.464-6.056-23.173-1.006,9.3,4.915,18.231,6.056,27.666A5.615,5.615,0,0,1,557.29,137.72Z" transform="translate(-540.059 -106.549)"/>
      <path id="Caminho_108" data-name="Caminho 108" d="M603.4,227.756c-.557,6.667-2.13,13.792-7.188,18.213s-14.377,4.178-17.189-1.878c-.9-1.8-1.033-3.891-1.9-5.688-1.995-4.115-6.9-5.715-11.187-7.323-12.175-4.556-23.919-13.478-26.534-26.246a27.563,27.563,0,0,1-.476-3.5,28.324,28.324,0,0,0,.476,8c2.615,12.732,14.377,21.691,26.534,26.246,4.286,1.608,9.192,3.208,11.187,7.323.9,1.8,1.051,3.873,1.9,5.688,2.83,6.056,12.166,6.29,17.189,1.878s6.586-11.546,7.188-18.213a102.69,102.69,0,0,0,.279-10.549C603.677,223.739,603.56,225.752,603.4,227.756Z" transform="translate(-538.823 -115.951)"/>
      <path id="Caminho_109" data-name="Caminho 109" d="M687.93,152.3v3.891c.5-16.713,6.631-33.515,6.029-49.878C693.492,121.441,688.271,136.914,687.93,152.3Z" transform="translate(-553.952 -106.31)"/>
      <path id="Caminho_110" data-name="Caminho 110" d="M664.878,228.125a11.58,11.58,0,0,0,.207-3.244,17.97,17.97,0,0,0-2.4-6.568c-5.194-9.884-11.115-20-11.816-30.973,0,.467-.063.9-.072,1.4-.359,12.166,6.209,23.3,11.888,34.063A21.566,21.566,0,0,1,664.878,228.125Z" transform="translate(-550.183 -114.532)"/>
      <path id="Caminho_111" data-name="Caminho 111" d="M689.732,218.057a73.114,73.114,0,0,1-9.066,31.017c-4.744,8.635-13.128,17.234-22.841,15.572a3.819,3.819,0,0,1-2.318-1.051,2.243,2.243,0,0,1-.422-.7c-.108.7-.2,1.411-.252,2.13a4.141,4.141,0,0,0,.674,3.064,3.819,3.819,0,0,0,2.318,1.051c9.713,1.662,18.1-6.937,22.841-15.572a73.112,73.112,0,0,0,9.066-31.017c.108-2.1.117-4.2.054-6.29C689.768,216.862,689.768,217.455,689.732,218.057Z" transform="translate(-550.588 -117.466)"/>
    </g>
    <path id="Caminho_112" data-name="Caminho 112" d="M695.31,517.993s22.742,9.542,37.738-11.573" transform="translate(-150.142 -122.264)" fill="none" opacity="0.1"/>
    <path id="Caminho_113" data-name="Caminho 113" d="M700.29,537.24s18.573-12.076,42.231-.4" transform="translate(-150.647 -124.835)" fill="none" opacity="0.1"/>
    <path id="Caminho_114" data-name="Caminho 114" d="M561.93,533.769s7.8-17.593,28.627-4.178" transform="translate(-136.608 -124.104)" fill="none" opacity="0.1"/>
    <path id="Caminho_115" data-name="Caminho 115" d="M533.79,243.265l15.9-14.377s61.667-4.043,64.218,16.919c0,0,21.861-24.853,67.839-19.319l19.453,15.491-53.768,23.6L595.187,283.7,556.7,266.474Z" transform="translate(-133.753 -93.78)" opacity="0.1"/>
    <path id="Caminho_116" data-name="Caminho 116" d="M533.79,244.265l15.9-14.377s61.667-4.043,64.218,16.919c0,0,21.861-24.854,67.839-19.319l19.453,15.491-53.768,23.6L595.187,284.7,556.7,267.474Z" transform="translate(-133.753 -93.881)" fill="#d5d6db"/>
    <path id="Caminho_117" data-name="Caminho 117" d="M437.38,204.83,444.415,289l74.578,3.747-3.235-83.806-.063-1.411Z" transform="translate(-44.379 -52.649)" opacity="0.1"/>
    <path id="Caminho_118" data-name="Caminho 118" d="M437.38,202.83,444.415,287l74.578,3.747-3.235-83.806-.063-1.411Z" transform="translate(-44.379 -52.446)" fill="#74a7cc"/>
    <path id="Caminho_119" data-name="Caminho 119" d="M626.643,202.83,549.71,214.367V298.91l75.18-10.863Z" transform="translate(-55.776 -52.446)" opacity="0.1"/>
    <path id="Caminho_120" data-name="Caminho 120" d="M626.643,200.83,549.71,212.367V296.91l75.18-10.863Z" transform="translate(-55.776 -52.243)" fill="#74a7cc"/>
    <path id="Caminho_121" data-name="Caminho 121" d="M610.447,223.79l-41.557,4.618.908,14.161,40.623-4.439Z" transform="translate(-57.722 -54.573)" fill="#fff" opacity="0.3"/>
    <path id="Caminho_122" data-name="Caminho 122" d="M538.086,381.616,542.318,393s6.29,5.391,13.173,2.7,12.885-4.034,15.877-6.658,7.188-15.805,7.188-15.805,4.2-14.377,8.383-17.971,15.275-53.112,0-48.269-26.956,49.77-26.956,49.77-2.7,3.289-6.586,3.594-11.681-.6-13.182,2.7S533.593,375.029,538.086,381.616Z" transform="translate(-134.006 -101.996)" fill="#be6f72"/>
    <path id="Caminho_123" data-name="Caminho 123" d="M635.742,258.445a25.878,25.878,0,0,1-22.562-5.625l3.244,83.8s7.638,8.267,19.318,6.38Z" transform="translate(-141.808 -96.533)" opacity="0.1"/>
    <path id="Caminho_124" data-name="Caminho 124" d="M635.742,256.445a25.878,25.878,0,0,1-22.562-5.625l3.244,83.8s7.638,8.267,19.318,6.38Z" transform="translate(-141.808 -96.33)" fill="#74a7cc"/>
    <path id="Caminho_125" data-name="Caminho 125" d="M635.742,256.445a25.878,25.878,0,0,1-22.562-5.625l3.244,83.8s7.638,8.267,19.318,6.38Z" transform="translate(-141.808 -96.33)" opacity="0.1"/>
    <path id="Caminho_126" data-name="Caminho 126" d="M640.29,245.627s31.3-9.569,39.455-8.222" transform="translate(-144.559 -94.956)" opacity="0.1"/>
    <path id="Caminho_127" data-name="Caminho 127" d="M597.332,241.3s-30.335-7.188-35.4-5.149" transform="translate(-136.608 -94.804)" opacity="0.1"/>
    <path id="Caminho_128" data-name="Caminho 128" d="M662.25,247.334s20.927-7.673,28.493-4.025" transform="translate(-146.787 -95.468)" opacity="0.1"/>
    <path id="Caminho_129" data-name="Caminho 129" d="M650.52,460.352a68.8,68.8,0,0,1,10.315-6.407c5.391-2.6,15.275-9.336,15.275-9.336" transform="translate(-145.597 -115.993)" opacity="0.1"/>
    <path id="Caminho_130" data-name="Caminho 130" d="M559.282,360.08s-13.128,10.737-17.072,11.681-6.38,9.318-6.38,9.318" transform="translate(-133.96 -107.416)" opacity="0.1"/>
    <path id="Caminho_131" data-name="Caminho 131" d="M708.924,379.839l-4.187,11.411s-6.29,5.391-13.182,2.7-12.876-4.034-15.877-6.658-7.188-15.805-7.188-15.805-4.187-14.377-8.383-17.971-15.275-53.112,0-48.269,26.956,49.77,26.956,49.77,2.7,3.289,6.586,3.594,11.681-.6,13.182,2.7S713.417,373.279,708.924,379.839Z" transform="translate(-145.776 -101.818)" fill="#be6f72"/>
    <path id="Caminho_132" data-name="Caminho 132" d="M707.15,364.94s8.581,5.517,8.545,12.112" transform="translate(-151.343 -107.909)" opacity="0.1"/>
    <circle id="Elipse_10" data-name="Elipse 10" cx="40.138" cy="40.138" r="40.138" transform="translate(442.861 16.834)" fill="#be6f72"/>
    <path id="Caminho_133" data-name="Caminho 133" d="M595.826,125.522c4.87-.764,9.138-3.594,13.793-5.22,10.414-3.657,21.933-1.15,32.473,2.147,4.044,1.267,8.15,2.7,12.391,2.7s8.743-1.734,10.908-5.391c1.995-3.361,1.608-7.727-.072-11.259s-4.493-6.371-7.332-9.048c-9.345-8.824-20.936-17.072-33.758-16.174-5.158.368-10.091,2.21-14.835,4.25a163.529,163.529,0,0,0-17.414,8.77c-4.322,2.507-12.328,5.858-14.817,10.441C571.5,117.057,587.02,126.905,595.826,125.522Z" transform="translate(-138.031 -79.323)" fill="#3e373a"/>
    <path id="Caminho_134" data-name="Caminho 134" d="M665.39,118.876c-2.165,3.657-6.667,5.391-10.908,5.391s-8.347-1.375-12.4-2.642c-10.54-3.3-22.05-5.814-32.473-2.148-4.645,1.626-8.922,4.493-13.792,5.212-7.1,1.114-18.528-5.068-19.768-12.93-1.393,9.084,11.861,16.866,19.768,15.626,4.87-.764,9.147-3.594,13.792-5.211,10.423-3.666,21.933-1.15,32.473,2.148,4.052,1.267,8.15,2.7,12.4,2.642s8.743-1.725,10.908-5.391A10.522,10.522,0,0,0,666.648,115a9.687,9.687,0,0,1-1.258,3.873Z" transform="translate(-138.03 -82.22)" opacity="0.1"/>
    <path id="Caminho_135" data-name="Caminho 135" d="M1036.344,661.63s5.328,6.964-2.462,17.486-14.206,19.4-11.618,25.959c0,0,11.753-19.534,21.313-19.813S1046.848,673.374,1036.344,661.63Z" transform="translate(-183.257 -138.013)" fill="#74a7cc"/>
    <path id="Caminho_136" data-name="Caminho 136" d="M1036.379,661.63a8.633,8.633,0,0,1,1.087,2.183c9.327,10.962,14.3,21.2,5.328,21.448-8.356.243-18.375,15.185-20.774,18.95a8.8,8.8,0,0,0,.279.9s11.753-19.534,21.313-19.813S1046.882,673.374,1036.379,661.63Z" transform="translate(-183.291 -138.013)" opacity="0.1"/>
    <path id="Caminho_137" data-name="Caminho 137" d="M1048.861,671.333c0,2.453-.279,4.439-.611,4.439s-.62-1.986-.62-4.439.341-1.294.683-1.294S1048.861,668.88,1048.861,671.333Z" transform="translate(-185.89 -138.838)" fill="#ffd037"/>
    <path id="Caminho_138" data-name="Caminho 138" d="M1052.316,674.575c-2.147,1.168-4.025,1.878-4.187,1.581s1.447-1.492,3.594-2.7,1.3-.323,1.465,0S1054.472,673.4,1052.316,674.575Z" transform="translate(-185.939 -139.151)" fill="#ffd037"/>
    <path id="Caminho_139" data-name="Caminho 139" d="M1005.31,661.63s-5.328,6.964,2.462,17.486,14.206,19.4,11.609,25.959c0,0-11.744-19.534-21.313-19.813S994.834,673.374,1005.31,661.63Z" transform="translate(-180.383 -138.013)" fill="#74a7cc"/>
    <path id="Caminho_140" data-name="Caminho 140" d="M1005.31,661.63a8.63,8.63,0,0,0-1.087,2.183c-9.327,10.962-14.3,21.2-5.328,21.448,8.347.243,18.375,15.185,20.774,18.95a6.965,6.965,0,0,1-.288.9s-11.744-19.534-21.313-19.813S994.834,673.374,1005.31,661.63Z" transform="translate(-180.383 -138.013)" opacity="0.1"/>
    <path id="Caminho_141" data-name="Caminho 141" d="M995.64,671.333c0,2.453.27,4.439.611,4.439s.62-1.986.62-4.439-.35-1.294-.683-1.294S995.64,668.88,995.64,671.333Z" transform="translate(-180.614 -138.838)" fill="#ffd037"/>
    <path id="Caminho_142" data-name="Caminho 142" d="M991.712,674.575c2.147,1.168,4.025,1.878,4.187,1.581s-1.447-1.492-3.594-2.7-1.3-.323-1.465,0S989.556,673.4,991.712,674.575Z" transform="translate(-180.083 -139.151)" fill="#ffd037"/>
    <ellipse id="Elipse_11" data-name="Elipse 11" cx="55.709" cy="8.545" rx="55.709" ry="8.545" transform="translate(783.298 603.273)" fill="#74a7cc" opacity="0.1"/>
    <path id="Caminho_143" data-name="Caminho 143" d="M1047.762,699.163l-.27,2.174-.377,3.073-.153,1.285-.378,3.073-.162,1.285-.369,3.064-4.268,34.953c-.378,3.118-5.472,5.553-11.627,5.553h-22.149c-6.155,0-11.241-2.435-11.627-5.553l-4.268-34.953-.377-3.064-.153-1.285-.377-3.073-.162-1.285-.368-3.073-.269-2.174c-.207-1.8,2.543-3.253,6.029-3.253h45.3C1045.219,695.91,1047.978,697.393,1047.762,699.163Z" transform="translate(-180.083 -141.491)" fill="#65617d"/>
    <path id="Caminho_144" data-name="Caminho 144" d="M958.944,658.53l-.368,3.073H902.507l-.377-3.073Z" transform="translate(-91.534 -98.684)" fill="#9d9cb5"/>
    <path id="Caminho_145" data-name="Caminho 145" d="M958.474,663.38l-.369,3.073H903.1l-.377-3.073Z" transform="translate(-91.594 -99.176)" fill="#9d9cb5"/>
    <path id="Caminho_146" data-name="Caminho 146" d="M958,668.23l-.378,3.073H903.688l-.368-3.073Z" transform="translate(-91.655 -99.668)" fill="#9d9cb5"/>
  </g>
</svg>
