<svg xmlns="http://www.w3.org/2000/svg" width="985.587" height="661.152" viewBox="0 0 985.587 661.152">
  <g id="Grupo_6" data-name="Grupo 6" transform="translate(-32 20)">
    <g id="Grupo_8" data-name="Grupo 8" transform="translate(32 -20)">
      <rect id="Retângulo_23" data-name="Retângulo 23" width="929" height="2" transform="translate(27.524 640.305)" fill="#3f3d56"/>
      <rect id="Retângulo_24" data-name="Retângulo 24" width="2" height="929" transform="translate(99.816 279.312) rotate(-67.078)" fill="#3f3d56"/>
      <rect id="Retângulo_25" data-name="Retângulo 25" width="929" height="2" transform="translate(27.524 277.305)" fill="#3f3d56"/>
      <path id="Caminho_147" data-name="Caminho 147" d="M937.731,449.652A322.068,322.068,0,0,1,844,677.762q-4.935,4.965-10.09,9.7-6.21,5.73-12.74,11.11c-.83.69-1.66,1.37-2.5,2.04a313.736,313.736,0,0,1-55.56,36.03c-1.17.59-2.34,1.18-3.52,1.76-1.87.92-3.76,1.82-5.65,2.7a311.18,311.18,0,0,1-223.25,15.15c-129.07-40.06-222.96-162.17-222.96-306.6,0-177.01,141.03-320.5,315-320.5S937.731,272.642,937.731,449.652Z" transform="translate(-107.207 -128.848)" fill="#74a7cc"/>
      <path id="Caminho_148" data-name="Caminho 148" d="M692.866,382.419l.25-.01-.987-2.166a60.5,60.5,0,0,0-4.049-8.891l-28.935-63.53a11.443,11.443,0,0,0-10.6-6.7l-36.644.61a11.443,11.443,0,0,0-10.666,7.826l-23.036,69.188a60.4,60.4,0,0,0-1.971,5.918l-.782,2.349.184-.007a60.852,60.852,0,1,0,117.24-4.589Z" transform="translate(-107.207 -128.848)" fill="#3f3d56"/>
      <rect id="Retângulo_26" data-name="Retângulo 26" width="64.08" height="1.323" transform="translate(505.836 251.454) rotate(-79.634)" fill="#74a7cc"/>
      <rect id="Retângulo_27" data-name="Retângulo 27" width="1.323" height="64.08" transform="translate(529.932 188.474) rotate(-12.264)" fill="#74a7cc"/>
      <path id="Caminho_149" data-name="Caminho 149" d="M607.9,270.709l46.955-.782a1.323,1.323,0,1,1,.044,2.645l-46.955.782a1.323,1.323,0,1,1-.044-2.645Z" transform="translate(-107.207 -128.848)" fill="#3f3d56"/>
      <path id="Caminho_150" data-name="Caminho 150" d="M608.4,280.624l46.955-.782a1.323,1.323,0,1,1,.044,2.645l-46.955.782a1.323,1.323,0,1,1-.044-2.645Z" transform="translate(-107.207 -128.848)" fill="#3f3d56"/>
      <path id="Caminho_151" data-name="Caminho 151" d="M608.9,290.538l46.955-.782a1.323,1.323,0,1,1,.044,2.645l-46.955.782a1.323,1.323,0,1,1-.044-2.645Z" transform="translate(-107.207 -128.848)" fill="#3f3d56"/>
      <path id="Caminho_152" data-name="Caminho 152" d="M631.224,260.884c-9.314.155-16.778,5.472-16.671,11.875l33.728-.562C648.174,265.793,640.538,260.728,631.224,260.884Z" transform="translate(-107.207 -128.848)" fill="#3f3d56"/>
      <path id="Caminho_153" data-name="Caminho 153" d="M636.414,389.614a8.149,8.149,0,0,1,4.946,2.113c.348.289.691.592,1.035.9a10.33,10.33,0,0,0,3.9,2.55c3.232.882,6.422-1.674,9.115-4.29l.922.948c-2.961,2.877-6.509,5.675-10.386,4.618a11.464,11.464,0,0,1-4.425-2.835c-.333-.295-.666-.589-1-.869-1.105-.917-3.24-2.343-5.138-1.6a6.442,6.442,0,0,0-2.059,1.589,12.323,12.323,0,0,1-1.43,1.287,6.478,6.478,0,0,1-7.179.214,12.811,12.811,0,0,1-1.124-.842,4.688,4.688,0,0,0-2.124-1.209c-1.124-.158-2.146.645-3.228,1.493a6.84,6.84,0,0,1-3.743,1.86l-.144,0c-2.636.044-4.308-2.593-5.342-4.6l1.176-.606c1.405,2.725,2.76,3.967,4.24,3.877a5.816,5.816,0,0,0,3-1.579c1.252-.982,2.548-2,4.227-1.763a5.721,5.721,0,0,1,2.774,1.491,11.67,11.67,0,0,0,1.006.757,5.2,5.2,0,0,0,5.685-.169,11.168,11.168,0,0,0,1.273-1.153,7.515,7.515,0,0,1,2.514-1.886,4.35,4.35,0,0,1,1.518-.3Z" transform="translate(-107.207 -128.848)" fill="#74a7cc"/>
      <rect id="Retângulo_28" data-name="Retângulo 28" width="1.375" height="131.982" transform="translate(524.134)" fill="#3f3d56"/>
      <path id="Caminho_154" data-name="Caminho 154" d="M1047.63,357.518c-8.382,30.986-37.093,50.176-37.093,50.176s-15.121-31.047-6.738-62.033,37.093-50.176,37.093-50.176S1056.01,326.532,1047.63,357.518Z" transform="translate(-107.207 -128.848)" fill="#74a7cc"/>
      <path id="Caminho_155" data-name="Caminho 155" d="M971.373,357.518c8.382,30.986,37.093,50.176,37.093,50.176s15.121-31.047,6.738-62.033-37.093-50.176-37.093-50.176S962.991,326.532,971.373,357.518Z" transform="translate(-107.207 -128.848)" fill="#74a7cc"/>
      <path id="Caminho_156" data-name="Caminho 156" d="M983.69,350.859c23,22.39,25.81,56.809,25.81,56.809s-34.482-1.883-57.483-24.273-25.81-56.81-25.81-56.81S960.689,328.468,983.69,350.859Z" transform="translate(-107.207 -128.848)" fill="#3f3d56"/>
      <path id="Caminho_157" data-name="Caminho 157" d="M1035.31,350.859c-23,22.39-25.81,56.809-25.81,56.809s34.482-1.883,57.483-24.273,25.81-56.81,25.81-56.81S1058.31,328.468,1035.31,350.859Z" transform="translate(-107.207 -128.848)" fill="#3f3d56"/>
      <path id="Caminho_158" data-name="Caminho 158" d="M228.627,719.518c-8.382,30.986-37.093,50.176-37.093,50.176s-15.121-31.047-6.738-62.033,37.093-50.176,37.093-50.176S237.009,688.532,228.627,719.518Z" transform="translate(-107.207 -128.848)" fill="#74a7cc"/>
      <path id="Caminho_159" data-name="Caminho 159" d="M152.373,719.518c8.382,30.986,37.093,50.176,37.093,50.176s15.121-31.047,6.738-62.033-37.093-50.176-37.093-50.176S143.991,688.532,152.373,719.518Z" transform="translate(-107.207 -128.848)" fill="#74a7cc"/>
      <path id="Caminho_160" data-name="Caminho 160" d="M164.69,712.859c23,22.39,25.81,56.809,25.81,56.809s-34.482-1.883-57.483-24.273-25.81-56.81-25.81-56.81S141.689,690.468,164.69,712.859Z" transform="translate(-107.207 -128.848)" fill="#3f3d56"/>
      <path id="Caminho_161" data-name="Caminho 161" d="M216.31,712.859c-23,22.39-25.81,56.809-25.81,56.809s34.482-1.883,57.483-24.273,25.81-56.81,25.81-56.81S239.311,690.468,216.31,712.859Z" transform="translate(-107.207 -128.848)" fill="#3f3d56"/>
      <circle id="Elipse_12" data-name="Elipse 12" cx="19.234" cy="19.234" r="19.234" transform="translate(651.108 265.955)" fill="#2f2e41"/>
      <path id="Caminho_162" data-name="Caminho 162" d="M756.94,405.793a19.233,19.233,0,0,1,17.172-19.121,19.234,19.234,0,1,0,0,38.241A19.234,19.234,0,0,1,756.94,405.793Z" transform="translate(-107.207 -128.848)" fill="#2f2e41"/>
      <path id="Caminho_163" data-name="Caminho 163" d="M758.314,414.036s-2.987,13.739,15.68,19.234Z" transform="translate(-107.207 -128.848)" fill="#74a7cc"/>
      <circle id="Elipse_13" data-name="Elipse 13" cx="64.573" cy="64.573" r="64.573" transform="translate(613.724 286.692)" fill="#2f2e41"/>
      <path id="Caminho_164" data-name="Caminho 164" d="M821.171,698.572c-.83.69-1.66,1.37-2.5,2.04a313.736,313.736,0,0,1-55.56,36.03c-1.17.59-2.34,1.18-3.52,1.76-1.87.92-3.76,1.82-5.65,2.7l-33.1-11.03.38-7.93v-.03l1.44-30.24.49-10.34Z" transform="translate(-107.207 -128.848)" fill="#a0616a"/>
      <path id="Caminho_165" data-name="Caminho 165" d="M759.591,738.4c-1.87.92-3.76,1.82-5.65,2.7a306.929,306.929,0,0,1-39.91,15.37,2.226,2.226,0,0,1-.12-.62l6.93-33.87.38.16Z" transform="translate(-107.207 -128.848)" fill="#2f2e41"/>
      <circle id="Elipse_14" data-name="Elipse 14" cx="42.762" cy="42.762" r="42.762" transform="translate(619.416 334.25)" fill="#a0616a"/>
      <path id="Caminho_166" data-name="Caminho 166" d="M804.057,508.171s6.934,34.672,19.647,42.762l-70.5,83.212-26.582-25.426,19.647-34.672S768.23,561.334,761.3,544Z" transform="translate(-107.207 -128.848)" fill="#a0616a"/>
      <path id="Caminho_167" data-name="Caminho 167" d="M887.721,623A320.878,320.878,0,0,1,844,677.762c-.71-15.5-2.25-28.28-5.27-32.06a.031.031,0,0,1-.02-.01l-36.97-11.55s8.09-76.28,27.74-79.74c0,0,2.85.58,7.28,1.92,14.28,4.3,44.94,16.42,49.35,41.99a141.926,141.926,0,0,1,1.61,24.69Z" transform="translate(-107.207 -128.848)" fill="#a0616a"/>
      <path id="Caminho_168" data-name="Caminho 168" d="M746.271,574.047s-34.672-1.156-56.63,26.582-75.122,48.54-75.122,48.54L481.61,701.177s-24.27-42.762-39.295-27.737S470.053,726.6,489.7,721.98s138.687-40.45,138.687-40.45l94.769-42.762Z" transform="translate(-107.207 -128.848)" fill="#a0616a"/>
      <path id="Caminho_169" data-name="Caminho 169" d="M838.731,645.7l-4.82,41.76q-6.21,5.73-12.74,11.11c-.83.69-1.66,1.37-2.5,2.04-33.37-10.23-85.66-9.09-96.01-8.74-1.18.03-1.82.06-1.82.06l-1.15-24.27c-11.09-3.69-14.73-11.76-14.83-20.64-.17-16.1,11.36-34.84,11.36-34.84,2.07-2.07,17.54-31.4,20.74-37.48.37-.71.58-1.1.58-1.1l13.87-3.46s-.04.11-.12.31c-1.24,3.47-12.02,34.86,6.54,35.95,18.26,1.08,57.98-50.2,63.45-57.39l.63-.83,15.03,8.09c-.06.02-.12.03-.18.05-9.18,2.55-17.68,24.66-17.68,24.66-23.97,42.24,18.58,64.18,19.63,64.71A.031.031,0,0,0,838.731,645.7Z" transform="translate(-107.207 -128.848)" fill="#d0cde1"/>
      <path id="Caminho_170" data-name="Caminho 170" d="M771.708,455.666c-22.763,0-41.216,10.764-41.216,24.043,0,5.941,3.709,11.371,9.832,15.566l7.935-5.749-2.158,9.007c.9.415,1.81.816,2.763,1.188l11.854-13.829v16.989a69.194,69.194,0,0,0,10.991.871c22.763,0,41.216-10.764,41.216-24.043S794.471,455.666,771.708,455.666Z" transform="translate(-107.207 -128.848)" fill="#2f2e41"/>
      <circle id="Elipse_15" data-name="Elipse 15" cx="19.234" cy="19.234" r="19.234" transform="translate(729.697 296.004)" fill="#2f2e41"/>
      <path id="Caminho_171" data-name="Caminho 171" d="M835.53,435.842a19.233,19.233,0,0,1,17.171-19.12,19.443,19.443,0,0,0-2.058-.114,19.234,19.234,0,1,0,2.061,38.355,19.234,19.234,0,0,1-17.173-19.121Z" transform="translate(-107.207 -128.848)" fill="#2f2e41"/>
      <path id="Caminho_172" data-name="Caminho 172" d="M836.9,444.085s-2.987,13.739,15.68,19.234Z" transform="translate(-107.207 -128.848)" fill="#74a7cc"/>
      <ellipse id="Elipse_16" data-name="Elipse 16" cx="3.339" cy="7.512" rx="3.339" ry="7.512" transform="translate(703.335 366.033)" fill="#a0616a"/>
      <path id="Caminho_173" data-name="Caminho 173" d="M445.388,531.454l-50.677,12.278-.165.039-5.509,4.987-1.586,1.434-3.4-.616-6.017-1.088,4.193-14.152.786-26.994-2.883-16.511,15.987-11.007S427.3,477.991,445.388,531.454Z" transform="translate(-107.207 -128.848)" fill="#d0cde1"/>
      <path id="Caminho_174" data-name="Caminho 174" d="M394.711,543.732c-.687,1.465.752.5-.034,2l-7.338,2.359-3.286,1.481-6.017-1.088,4.193-14.152.786-26.994-2.883-16.511,15.987-11.007S413.276,504.125,394.711,543.732Z" transform="translate(-107.207 -128.848)" opacity="0.1"/>
      <path id="Caminho_175" data-name="Caminho 175" d="M505.141,492.667s-66.567,30.925-93.56,35.642-24.635,31.711-24.635,31.711l151.216-23.587S532.921,512.061,505.141,492.667Z" transform="translate(-107.207 -128.848)" fill="#d0cde1"/>
      <path id="Caminho_176" data-name="Caminho 176" d="M376.725,487.426s11.531,28.042-1.31,62.9l14.938,6.814,5.766-6.814.131-.655-15.855-1.441s13.1-35.118,2.359-59.491C382.752,488.736,380.394,483.495,376.725,487.426Z" transform="translate(-107.207 -128.848)" fill="#74a7cc"/>
      <path id="Caminho_177" data-name="Caminho 177" d="M596.6,695.25c-58.966-13.1-113.871,14.021-113.871,14.021l-.149-.134-21.865-19.522L375.283,550.192l20.835.131c57.918-34.594,139.423-29.876,139.423-29.876C570.659,560.282,596.6,695.25,596.6,695.25Z" transform="translate(-107.207 -128.848)" fill="#3f3d56"/>
      <path id="Caminho_178" data-name="Caminho 178" d="M482.584,709.137l-21.865-19.522L375.283,550.192l20.835.131S479.159,660,482.584,709.137Z" transform="translate(-107.207 -128.848)" opacity="0.1"/>
      <ellipse id="Elipse_17" data-name="Elipse 17" cx="33.807" cy="21.49" rx="33.807" ry="21.49" transform="translate(340.05 440.327) rotate(-17.052)" fill="#d0cde1"/>
      <circle id="Elipse_18" data-name="Elipse 18" cx="19" cy="19" r="19" transform="translate(8.793 258.152)" fill="#3f3d56"/>
      <circle id="Elipse_19" data-name="Elipse 19" cx="19" cy="19" r="19" transform="translate(936.793 623.152)" fill="#3f3d56"/>
      <circle id="Elipse_20" data-name="Elipse 20" cx="15" cy="15" r="15" transform="translate(95.793 264.152)" fill="#74a7cc"/>
      <circle id="Elipse_21" data-name="Elipse 21" cx="15" cy="15" r="15" transform="translate(940.793 264.152)" fill="#74a7cc"/>
      <circle id="Elipse_22" data-name="Elipse 22" cx="15" cy="15" r="15" transform="translate(12.793 625.152)" fill="#74a7cc"/>
    </g>
  </g>
</svg>
